<?xml version="1.0" encoding="utf-8" ?>
<svg baseProfile="tiny" version="1.2" xmlns="http://www.w3.org/2000/svg" xmlns:ev="http://www.w3.org/2001/xml-events" xmlns:xlink="http://www.w3.org/1999/xlink" viewBox="-7 -7 414 414"><defs />
<g stroke="rgb(20%,50%,80%)" stroke-width="14">
<polygon points="200.0,400.0 235.1163,376.5414 276.5367,384.7759 300.0026,349.6645 341.4214,341.4214 349.6645,300.0026 384.7759,276.5367 376.5414,235.1163 400.0,200.0 376.5414,164.8837 384.7759,123.4633 349.6645,99.9974 341.4214,58.5786 300.0026,50.3355 276.5367,15.2241 235.1163,23.4586 200.0,0.0 164.8837,23.4586 123.4633,15.2241 99.9974,50.3355 58.5786,58.5786 50.3355,99.9974 15.2241,123.4633 23.4586,164.8837 0.0,200.0 23.4586,235.1163 15.2241,276.5367 50.3355,300.0026 58.5786,341.4214 99.9974,349.6645 123.4633,384.7759 164.8837,376.5414" fill="transparent" />
<path d="M 125 180 C 60 180 60 90 140 110 C 150 50 250 50 260 110 C 340 90 340 180 275 180 z" fill="transparent" />
<line x1="150" y1="200" x2="150" y2="250" />
<line x1="250" y1="200" x2="250" y2="250" />
<line x1="100" y1="250" x2="100" y2="300" />
<line x1="200" y1="250" x2="200" y2="300" />
<line x1="300" y1="250" x2="300" y2="300" />
<!-- <path d="M 150 380 S 140 470 150 560 L 100 570" fill="transparent" />
<path d="M 250 380 S 260 470 250 560 L 300 570" fill="transparent" /> -->
</g>
</svg>
